<?xml version="1.0" encoding="UTF-8"?>
<svg width="700pt" height="700pt" version="1.1" viewBox="0 0 700 550" xmlns="http://www.w3.org/2000/svg" xmlns:xlink="http://www.w3.org/1999/xlink">
 <g>
  <path fill="#a37c3c" d="m350 56c-123.84 0-224 100.16-224 224s100.16 224 224 224 224-100.16 224-224-100.16-224-224-224zm111.3 100.8c0.34766-0.015625 0.69922-0.015625 1.0508 0 4.1562 0.18359 7.8711 2.6719 9.6367 6.457 1.7617 3.7852 1.2852 8.2461-1.2383 11.57l-168.7 224c-2.4766 3.2812-6.543 4.9414-10.594 4.3203-4.0547-0.62109-7.4414-3.4219-8.832-7.2969l-31.152-89.773-5.9492 5.6016v-0.003907c-2.0703 2.4062-5.0547 3.8125-8.2188 3.8789-3.1641 0.066406-6.207-1.2188-8.375-3.5352-2.1641-2.3164-3.2539-5.4492-2.9922-8.6172 0.26172-3.1641 1.8477-6.0742 4.3633-8l18.375-17.5c2.7422-2.6055 6.6055-3.6445 10.277-2.7617s6.6484 3.5664 7.9219 7.1367l29.926 86.449 156.27-207.38c1.9453-2.6562 4.9531-4.3203 8.2266-4.5508z"/>
 </g>
</svg>
