<svg id="Layer_1" data-name="Layer 1" xmlns="http://www.w3.org/2000/svg" viewBox="0 0 812.82 520" width="812" fill="#f4f4f4">
    <path d="M346.87,517.5a71.94,71.94,0,1,0-71.93-71.93A71.94,71.94,0,0,0,346.87,517.5Z" transform="translate(-143.89 -143.89)"/>
    <circle cx="608.53" cy="301.68" r="71.94"/>
    <path d="M144.1,445.57c0,112,90.78,202.77,202.77,202.77a202,202,0,0,0,137.81-54.05l65,70.73,65-70.69a202,202,0,0,0,137.77,54c112,0,202.86-90.79,202.86-202.77A202.29,202.29,0,0,0,889.13,295.7l66.35-72.19H808.39a459.49,459.49,0,0,0-517,0H143.89l66.35,72.19A202.28,202.28,0,0,0,144.1,445.57Zm745.55,0A137.23,137.23,0,1,1,752.42,308.34,137.23,137.23,0,0,1,889.65,445.57Zm-340-235.33A393.78,393.78,0,0,1,702,240.7c-86.61,33.14-152.28,110.62-152.28,200.91,0-90.3-65.69-167.79-152.31-200.92A393.7,393.7,0,0,1,549.65,210.24Zm-202.78,98.1A137.23,137.23,0,1,1,209.64,445.57,137.23,137.23,0,0,1,346.87,308.34Z" transform="translate(-143.89 -143.89)"/>
</svg>
